<svg width="38" height="32" viewBox="0 0 38 32" fill="none" xmlns="http://www.w3.org/2000/svg">
<path d="M6.37835 7.4176C6.37835 7.27626 6.42003 7.1381 6.49813 7.02059C6.57623 6.90307 6.68722 6.81148 6.81709 6.75739C6.94696 6.7033 7.08986 6.68915 7.22773 6.71673C7.3656 6.7443 7.49223 6.81236 7.59163 6.9123C7.69103 7.01224 7.75872 7.13957 7.78614 7.27819C7.81357 7.41681 7.79949 7.56049 7.74569 7.69107C7.6919 7.82164 7.60081 7.93325 7.48394 8.01177C7.36706 8.09029 7.22964 8.1322 7.08907 8.1322C6.90057 8.1322 6.71981 8.05691 6.58653 7.9229C6.45324 7.78888 6.37835 7.60712 6.37835 7.4176ZM3.75262 7.92894C3.85339 7.92894 3.9519 7.89888 4.03568 7.84257C4.11946 7.78626 4.18476 7.70623 4.22329 7.61261C4.26182 7.51898 4.27185 7.41597 4.25213 7.3166C4.23241 7.21723 4.18382 7.12598 4.11251 7.05439C4.0412 6.9828 3.95036 6.93409 3.8515 6.91441C3.75264 6.89474 3.65022 6.905 3.55716 6.94388C3.4641 6.98277 3.38461 7.04853 3.32873 7.13286C3.27286 7.21718 3.24311 7.31627 3.24327 7.4176C3.24327 7.48482 3.25645 7.55137 3.28206 7.61346C3.30767 7.67555 3.3452 7.73196 3.39251 7.77945C3.43982 7.82694 3.49596 7.86459 3.55776 7.89024C3.61955 7.91589 3.68576 7.92904 3.75262 7.92894ZM0.41381 10.4547C0.332091 10.4545 0.252155 10.4787 0.184132 10.5243C0.116109 10.5698 0.0630495 10.6346 0.0316686 10.7105C0.000287789 10.7863 -0.00800775 10.8699 0.00783902 10.9505C0.0236858 11.0311 0.0629538 11.1051 0.120683 11.1633C0.178411 11.2214 0.252004 11.2611 0.332142 11.2772C0.412279 11.2932 0.495367 11.2851 0.570881 11.2537C0.646395 11.2223 0.710953 11.169 0.75637 11.1007C0.801787 11.0324 0.826027 10.9521 0.826028 10.8699C0.826028 10.7599 0.782621 10.6544 0.705337 10.5766C0.628054 10.4987 0.52321 10.4549 0.41381 10.4547ZM7.09065 4.4766C7.19146 4.47676 7.29006 4.44684 7.37395 4.39062C7.45783 4.33441 7.52323 4.25443 7.56188 4.16082C7.60053 4.06721 7.61068 3.96417 7.59105 3.86475C7.57143 3.76533 7.5229 3.67401 7.45162 3.60234C7.38034 3.53067 7.28949 3.48187 7.19062 3.46214C7.09174 3.4424 6.98926 3.45261 6.89616 3.49147C6.80305 3.53033 6.72353 3.5961 6.66762 3.68044C6.61171 3.76478 6.58194 3.86391 6.58209 3.96526C6.58209 4.03241 6.59525 4.09891 6.62081 4.16094C6.64636 4.22298 6.68382 4.27935 6.73105 4.32683C6.77827 4.37432 6.83434 4.41198 6.89604 4.43768C6.95774 4.46338 7.02387 4.4766 7.09065 4.4766ZM0.41381 13.907C0.332091 13.9068 0.252155 13.9311 0.184132 13.9766C0.116109 14.0221 0.0630495 14.0869 0.0316686 14.1628C0.000287789 14.2387 -0.00800775 14.3222 0.00783902 14.4028C0.0236858 14.4834 0.0629538 14.5575 0.120683 14.6156C0.178411 14.6738 0.252004 14.7134 0.332142 14.7295C0.412279 14.7456 0.495367 14.7374 0.570881 14.706C0.646395 14.6746 0.710953 14.6214 0.75637 14.5531C0.801787 14.4848 0.826027 14.4044 0.826028 14.3223C0.826028 14.2123 0.782621 14.1068 0.705337 14.0289C0.628054 13.9511 0.52321 13.9072 0.41381 13.907ZM13.7683 4.68146C13.9089 4.68146 14.0463 4.63954 14.1632 4.56102C14.28 4.4825 14.3711 4.3709 14.4249 4.24032C14.4787 4.10974 14.4928 3.96606 14.4654 3.82744C14.438 3.68882 14.3703 3.56149 14.2709 3.46155C14.1715 3.36161 14.0448 3.29355 13.907 3.26598C13.7691 3.2384 13.6262 3.25256 13.4963 3.30664C13.3665 3.36073 13.2555 3.45232 13.1774 3.56984C13.0993 3.68735 13.0576 3.82552 13.0576 3.96685C13.0576 4.15638 13.1325 4.33814 13.2657 4.47215C13.399 4.60617 13.5798 4.68146 13.7683 4.68146ZM13.7683 8.44107C13.9696 8.44107 14.1664 8.38105 14.3338 8.26859C14.5012 8.15612 14.6317 7.99628 14.7087 7.80927C14.7858 7.62225 14.8059 7.41646 14.7667 7.21793C14.7274 7.01939 14.6304 6.83703 14.4881 6.69389C14.3457 6.55076 14.1643 6.45328 13.9669 6.41379C13.7694 6.3743 13.5648 6.39457 13.3788 6.47203C13.1928 6.5495 13.0338 6.68068 12.9219 6.84899C12.8101 7.0173 12.7504 7.21517 12.7504 7.4176C12.7504 7.68904 12.8576 7.94937 13.0485 8.1413C13.2394 8.33324 13.4983 8.44107 13.7683 8.44107ZM10.4295 4.4766C10.5303 4.4766 10.6288 4.44655 10.7125 4.39024C10.7963 4.33393 10.8616 4.2539 10.9001 4.16027C10.9387 4.06664 10.9487 3.96363 10.929 3.86426C10.9093 3.7649 10.8607 3.67365 10.7894 3.60205C10.7181 3.53046 10.6272 3.48175 10.5284 3.46208C10.4295 3.44241 10.3271 3.45266 10.234 3.49155C10.141 3.53043 10.0615 3.5962 10.0056 3.68052C9.94972 3.76485 9.91997 3.86394 9.92013 3.96526C9.92013 4.03248 9.93331 4.09904 9.95892 4.16113C9.98453 4.22322 10.0221 4.27962 10.0694 4.32711C10.1167 4.37461 10.1728 4.41226 10.2346 4.43791C10.2964 4.46356 10.3626 4.47671 10.4295 4.4766ZM10.4295 8.44107C10.6308 8.44107 10.8276 8.38105 10.995 8.26859C11.1624 8.15612 11.2929 7.99628 11.3699 7.80927C11.447 7.62225 11.4671 7.41646 11.4278 7.21793C11.3886 7.01939 11.2916 6.83703 11.1493 6.69389C11.0069 6.55076 10.8255 6.45328 10.6281 6.41379C10.4306 6.3743 10.226 6.39457 10.04 6.47203C9.85395 6.5495 9.69497 6.68068 9.58312 6.84899C9.47127 7.0173 9.41157 7.21517 9.41157 7.4176C9.41157 7.68904 9.51881 7.94937 9.70971 8.1413C9.90061 8.33324 10.1595 8.44107 10.4295 8.44107ZM3.75262 10.1529C3.61205 10.1529 3.47465 10.1949 3.35777 10.2734C3.24089 10.3519 3.1498 10.4635 3.09601 10.5941C3.04222 10.7247 3.02814 10.8683 3.05556 11.007C3.08298 11.1456 3.15068 11.2729 3.25007 11.3729C3.34947 11.4728 3.47611 11.5409 3.61398 11.5684C3.75184 11.596 3.89474 11.5818 4.02461 11.5278C4.15448 11.4737 4.26548 11.3821 4.34357 11.2646C4.42167 11.147 4.46334 11.0089 4.46334 10.8676C4.46334 10.678 4.38846 10.4963 4.25518 10.3623C4.12189 10.2282 3.94111 10.1529 3.75262 10.1529ZM7.09065 13.298C6.88917 13.298 6.69222 13.3581 6.5247 13.4706C6.35717 13.5832 6.2266 13.7431 6.1495 13.9303C6.07239 14.1175 6.05222 14.3234 6.09152 14.5221C6.13083 14.7208 6.22786 14.9033 6.37033 15.0465C6.51279 15.1898 6.69431 15.2873 6.89192 15.3269C7.08953 15.3664 7.29436 15.3461 7.4805 15.2686C7.66665 15.191 7.82575 15.0598 7.93768 14.8913C8.04962 14.7229 8.10937 14.5248 8.10937 14.3223C8.10937 14.0506 8.00204 13.7901 7.811 13.598C7.61995 13.4059 7.36083 13.298 7.09065 13.298ZM7.09065 9.84567C6.88917 9.84567 6.69222 9.90574 6.5247 10.0183C6.35717 10.1308 6.2266 10.2908 6.1495 10.478C6.07239 10.6651 6.05222 10.8711 6.09152 11.0698C6.13083 11.2684 6.22786 11.451 6.37033 11.5942C6.51279 11.7374 6.69431 11.835 6.89192 11.8745C7.08953 11.914 7.29436 11.8938 7.4805 11.8162C7.66665 11.7387 7.82575 11.6074 7.93768 11.439C8.04962 11.2705 8.10937 11.0725 8.10937 10.8699C8.10895 10.5986 8.00143 10.3384 7.81044 10.1467C7.61944 9.95495 7.36055 9.84725 7.09065 9.84725V9.84567ZM10.4295 20.7148C10.3287 20.7148 10.2303 20.7448 10.1465 20.8011C10.0627 20.8574 9.99745 20.9374 9.9589 21.031C9.92035 21.1245 9.91027 21.2275 9.92992 21.3269C9.94958 21.4262 9.99808 21.5174 10.0693 21.5891C10.1405 21.6607 10.2313 21.7095 10.3301 21.7292C10.4289 21.749 10.5313 21.7389 10.6244 21.7001C10.7175 21.6613 10.797 21.5957 10.853 21.5115C10.909 21.4272 10.9388 21.3282 10.9388 21.2269C10.9388 21.0911 10.8852 20.9608 10.7896 20.8648C10.6941 20.7688 10.5646 20.7148 10.4295 20.7148ZM10.4295 16.7503C10.228 16.7502 10.0309 16.8101 9.86331 16.9226C9.69568 17.035 9.56499 17.1949 9.48776 17.3821C9.41054 17.5692 9.39024 17.7752 9.42946 17.9739C9.46868 18.1727 9.56563 18.3553 9.70807 18.4986C9.85051 18.6419 10.032 18.7395 10.2297 18.7791C10.4273 18.8187 10.6322 18.7985 10.8183 18.721C11.0045 18.6435 11.1637 18.5122 11.2757 18.3437C11.3876 18.1753 11.4474 17.9772 11.4474 17.7746C11.4474 17.5031 11.3402 17.2427 11.1493 17.0506C10.9584 16.8586 10.6995 16.7505 10.4295 16.7503ZM13.7683 0.936133C13.8498 0.936133 13.9295 0.911824 13.9973 0.866282C14.0651 0.820739 14.118 0.756007 14.1492 0.680273C14.1804 0.604538 14.1885 0.521202 14.1726 0.440803C14.1567 0.360403 14.1174 0.286551 14.0598 0.228586C14.0021 0.170622 13.9287 0.131147 13.8487 0.115155C13.7688 0.0991621 13.6859 0.107371 13.6106 0.138741C13.5352 0.170111 13.4708 0.223234 13.4255 0.291394C13.3803 0.359553 13.3561 0.439687 13.3561 0.521662C13.3561 0.631586 13.3995 0.737009 13.4768 0.814737C13.5541 0.892466 13.659 0.936133 13.7683 0.936133ZM3.75262 13.6053C3.61205 13.6053 3.47465 13.6472 3.35777 13.7257C3.24089 13.8042 3.1498 13.9158 3.09601 14.0464C3.04222 14.177 3.02814 14.3207 3.05556 14.4593C3.08298 14.5979 3.15068 14.7252 3.25007 14.8252C3.34947 14.9251 3.47611 14.9932 3.61398 15.0208C3.75184 15.0483 3.89474 15.0342 4.02461 14.9801C4.15448 14.926 4.26548 14.8344 4.34357 14.7169C4.42167 14.5994 4.46334 14.4612 4.46334 14.3199C4.46334 14.1304 4.38846 13.9486 4.25518 13.8146C4.12189 13.6806 3.94111 13.6053 3.75262 13.6053ZM3.75262 17.2625C3.65184 17.2623 3.5533 17.2922 3.46944 17.3484C3.38557 17.4046 3.32015 17.4845 3.28148 17.5781C3.24281 17.6716 3.23261 17.7746 3.25217 17.874C3.27174 17.9734 3.32019 18.0648 3.39139 18.1365C3.4626 18.2082 3.55334 18.257 3.65217 18.2768C3.751 18.2967 3.85345 18.2866 3.94657 18.2478C4.03969 18.2091 4.11928 18.1435 4.17528 18.0592C4.23129 17.975 4.26119 17.8759 4.26119 17.7746C4.26119 17.6389 4.20763 17.5088 4.11228 17.4128C4.01693 17.3167 3.88757 17.2627 3.75262 17.2625ZM7.09065 17.0576C6.95008 17.0576 6.81268 17.0995 6.6958 17.1781C6.57893 17.2566 6.48784 17.3682 6.43404 17.4988C6.38025 17.6293 6.36617 17.773 6.3936 17.9116C6.42102 18.0503 6.48871 18.1776 6.58811 18.2775C6.6875 18.3775 6.81414 18.4455 6.95201 18.4731C7.08988 18.5007 7.23278 18.4865 7.36265 18.4324C7.49252 18.3783 7.60351 18.2868 7.68161 18.1692C7.75971 18.0517 7.80138 17.9136 7.80138 17.7722C7.80138 17.5827 7.7265 17.4009 7.59321 17.2669C7.45993 17.1329 7.27915 17.0576 7.09065 17.0576ZM23.784 0.927399C23.8655 0.927399 23.9452 0.90309 24.013 0.857548C24.0808 0.812005 24.1336 0.747273 24.1648 0.671539C24.196 0.595804 24.2042 0.512468 24.1883 0.432069C24.1724 0.351669 24.1331 0.277817 24.0755 0.219852C24.0178 0.161888 23.9444 0.122413 23.8644 0.10642C23.7844 0.090428 23.7016 0.0986367 23.6262 0.130007C23.5509 0.161377 23.4865 0.2145 23.4412 0.282659C23.3959 0.350819 23.3718 0.430953 23.3718 0.512928C23.3718 0.622852 23.4152 0.728275 23.4925 0.806003C23.5698 0.883732 23.6747 0.927399 23.784 0.927399ZM30.4608 11.8934C30.6624 11.8936 30.8594 11.8336 31.0271 11.7211C31.1947 11.6086 31.3254 11.4487 31.4026 11.2615C31.4798 11.0743 31.5001 10.8683 31.4608 10.6695C31.4215 10.4707 31.3245 10.2882 31.182 10.1449C31.0394 10.0016 30.8579 9.90401 30.6602 9.86451C30.4625 9.82502 30.2576 9.84537 30.0714 9.92299C29.8852 10.0006 29.7262 10.132 29.6143 10.3006C29.5024 10.4691 29.4428 10.6673 29.4429 10.8699C29.4431 11.1413 29.5504 11.4015 29.7413 11.5934C29.9321 11.7853 30.1909 11.8932 30.4608 11.8934ZM30.4608 8.13379C30.6014 8.13379 30.7388 8.09188 30.8557 8.01336C30.9726 7.93484 31.0637 7.82323 31.1175 7.69265C31.1713 7.56208 31.1853 7.41839 31.1579 7.27977C31.1305 7.14115 31.0628 7.01382 30.9634 6.91388C30.864 6.81394 30.7374 6.74589 30.5995 6.71831C30.4616 6.69074 30.3187 6.70489 30.1889 6.75898C30.059 6.81306 29.948 6.90466 29.8699 7.02217C29.7918 7.13969 29.7501 7.27785 29.7501 7.41919C29.7501 7.60871 29.825 7.79047 29.9583 7.92449C30.0916 8.0585 30.2724 8.13379 30.4608 8.13379ZM27.1228 4.69098C27.2634 4.69098 27.4008 4.64907 27.5177 4.57055C27.6345 4.49203 27.7256 4.38042 27.7794 4.24985C27.8332 4.11927 27.8473 3.97559 27.8199 3.83697C27.7924 3.69835 27.7248 3.57102 27.6254 3.47108C27.526 3.37114 27.3993 3.30308 27.2615 3.27551C27.1236 3.24793 26.9807 3.26208 26.8508 3.31617C26.7209 3.37026 26.6099 3.46185 26.5319 3.57937C26.4538 3.69688 26.4121 3.83504 26.4121 3.97638C26.4121 4.07022 26.4305 4.16315 26.4662 4.24985C26.5019 4.33655 26.5543 4.41532 26.6203 4.48168C26.6862 4.54804 26.7646 4.60067 26.8508 4.63659C26.937 4.6725 27.0295 4.69098 27.1228 4.69098ZM17.1079 8.64592C17.3495 8.64592 17.5857 8.57389 17.7866 8.43892C17.9875 8.30395 18.1441 8.11211 18.2366 7.88766C18.329 7.66321 18.3532 7.41624 18.3061 7.17796C18.259 6.93969 18.1426 6.72083 17.9718 6.54904C17.8009 6.37726 17.5832 6.26027 17.3463 6.21287C17.1093 6.16548 16.8636 6.1898 16.6404 6.28277C16.4172 6.37574 16.2264 6.53318 16.0922 6.73518C15.9579 6.93717 15.8863 7.17466 15.8863 7.4176C15.8863 7.74337 16.015 8.0558 16.2441 8.28616C16.4732 8.51651 16.7839 8.64592 17.1079 8.64592ZM34.0429 7.93132C34.1437 7.93132 34.2422 7.90126 34.3259 7.84495C34.4097 7.78865 34.475 7.70861 34.5135 7.61499C34.5521 7.52136 34.5621 7.41835 34.5424 7.31898C34.5227 7.21962 34.4741 7.12836 34.4028 7.05677C34.3315 6.98518 34.2406 6.93647 34.1418 6.9168C34.0429 6.89713 33.9405 6.90738 33.8474 6.94626C33.7544 6.98515 33.6749 7.05091 33.619 7.13524C33.5631 7.21956 33.5334 7.31866 33.5335 7.41998C33.5342 7.55518 33.588 7.68463 33.6833 7.78001C33.7786 7.87539 33.9076 7.92894 34.0421 7.92894L34.0429 7.93132ZM27.1236 8.44345C27.3249 8.4433 27.5216 8.38314 27.6889 8.27058C27.8562 8.15803 27.9865 7.99813 28.0635 7.8111C28.1404 7.62407 28.1604 7.41831 28.1211 7.21982C28.0817 7.02134 27.9847 6.83905 27.8423 6.696C27.6999 6.55294 27.5185 6.45554 27.3211 6.41612C27.1237 6.37669 26.919 6.397 26.7331 6.47449C26.5471 6.55198 26.3882 6.68316 26.2764 6.85145C26.1646 7.01974 26.1049 7.21759 26.1049 7.41998C26.1055 7.69101 26.213 7.95072 26.4039 8.14214C26.5947 8.33357 26.8533 8.44107 27.1228 8.44107L27.1236 8.44345ZM30.4616 4.47899C30.5624 4.47914 30.661 4.44922 30.7449 4.39301C30.8288 4.33679 30.8942 4.25682 30.9329 4.1632C30.9715 4.06959 30.9816 3.96655 30.962 3.86713C30.9424 3.76771 30.8939 3.67639 30.8226 3.60472C30.7513 3.53305 30.6605 3.48426 30.5616 3.46452C30.4627 3.44478 30.3602 3.45499 30.2671 3.49385C30.174 3.53272 30.0945 3.59848 30.0386 3.68282C29.9827 3.76716 29.9529 3.86629 29.9531 3.96765C29.9537 4.10271 30.0074 4.23204 30.1026 4.3274C30.1977 4.42276 30.3265 4.47639 30.4608 4.4766L30.4616 4.47899ZM34.0429 11.5885C34.1835 11.5885 34.3209 11.5466 34.4378 11.4681C34.5546 11.3896 34.6457 11.2779 34.6995 11.1474C34.7533 11.0168 34.7674 10.8731 34.74 10.7345C34.7125 10.5959 34.6448 10.4685 34.5454 10.3686C34.4461 10.2687 34.3194 10.2006 34.1815 10.173C34.0437 10.1455 33.9008 10.1596 33.7709 10.2137C33.641 10.2678 33.53 10.3594 33.4519 10.4769C33.3739 10.5944 33.3322 10.7326 33.3322 10.8739C33.3328 11.0629 33.4078 11.2439 33.5409 11.3774C33.6739 11.5109 33.8541 11.5859 34.0421 11.5861L34.0429 11.5885ZM37.1393 11.2868C37.221 11.2869 37.301 11.2627 37.369 11.2171C37.4371 11.1716 37.4901 11.1067 37.5215 11.0308C37.5528 10.9549 37.5611 10.8713 37.5452 10.7907C37.5293 10.7101 37.4899 10.636 37.4321 10.5779C37.3743 10.5198 37.3006 10.4802 37.2204 10.4642C37.1402 10.4482 37.0572 10.4565 36.9817 10.488C36.9062 10.5195 36.8416 10.5729 36.7963 10.6413C36.751 10.7097 36.7269 10.7901 36.7271 10.8723C36.7277 10.9817 36.7713 11.0864 36.8483 11.1636C36.9254 11.2408 37.0297 11.2842 37.1385 11.2844L37.1393 11.2868ZM20.5115 8.64592C20.7531 8.64592 20.9893 8.57389 21.1902 8.43892C21.3911 8.30395 21.5477 8.11211 21.6402 7.88766C21.7326 7.66321 21.7568 7.41624 21.7097 7.17796C21.6625 6.93969 21.5462 6.72083 21.3753 6.54904C21.2045 6.37726 20.9868 6.26027 20.7498 6.21287C20.5129 6.16548 20.2672 6.1898 20.044 6.28277C19.8208 6.37574 19.63 6.53318 19.4957 6.73518C19.3615 6.93717 19.2898 7.17466 19.2898 7.4176C19.2898 7.74337 19.4186 8.0558 19.6477 8.28616C19.8768 8.51651 20.1875 8.64592 20.5115 8.64592ZM23.784 4.68146C23.9246 4.68146 24.062 4.63954 24.1788 4.56102C24.2957 4.4825 24.3868 4.3709 24.4406 4.24032C24.4944 4.10974 24.5085 3.96606 24.4811 3.82744C24.4536 3.68882 24.3859 3.56149 24.2865 3.46155C24.1872 3.36161 24.0605 3.29355 23.9226 3.26598C23.7848 3.2384 23.6419 3.25256 23.512 3.30664C23.3821 3.36073 23.2711 3.45232 23.193 3.56984C23.115 3.68735 23.0733 3.82552 23.0733 3.96685C23.0733 4.15638 23.1481 4.33814 23.2814 4.47215C23.4147 4.60617 23.5955 4.68146 23.784 4.68146ZM17.1071 4.68146C17.2477 4.68146 17.3851 4.63954 17.502 4.56102C17.6189 4.4825 17.71 4.3709 17.7638 4.24032C17.8175 4.10974 17.8316 3.96606 17.8042 3.82744C17.7768 3.68882 17.7091 3.56149 17.6097 3.46155C17.5103 3.36161 17.3837 3.29355 17.2458 3.26598C17.1079 3.2384 16.965 3.25256 16.8351 3.30664C16.7053 3.36073 16.5943 3.45232 16.5162 3.56984C16.4381 3.68735 16.3964 3.82552 16.3964 3.96685C16.3964 4.06076 16.4148 4.15375 16.4506 4.2405C16.4863 4.32725 16.5388 4.40607 16.6049 4.47243C16.6709 4.5388 16.7494 4.59142 16.8357 4.62729C16.922 4.66315 17.0137 4.68156 17.1071 4.68146ZM20.5115 4.68146C20.6521 4.68146 20.7895 4.63954 20.9064 4.56102C21.0232 4.4825 21.1143 4.3709 21.1681 4.24032C21.2219 4.10974 21.236 3.96606 21.2086 3.82744C21.1811 3.68882 21.1134 3.56149 21.014 3.46155C20.9146 3.36161 20.788 3.29355 20.6501 3.26598C20.5123 3.2384 20.3694 3.25256 20.2395 3.30664C20.1096 3.36073 19.9986 3.45232 19.9205 3.56984C19.8424 3.68735 19.8008 3.82552 19.8008 3.96685C19.8008 4.15638 19.8757 4.33814 20.0089 4.47215C20.1422 4.60617 20.323 4.68146 20.5115 4.68146ZM17.1079 1.02427C17.2087 1.02427 17.3072 0.994211 17.391 0.937902C17.4748 0.881592 17.54 0.801561 17.5786 0.707935C17.6171 0.614309 17.6272 0.511295 17.6074 0.411929C17.5877 0.312563 17.5391 0.221312 17.4678 0.14972C17.3965 0.0781288 17.3057 0.0294153 17.2068 0.00974431C17.1079 -0.00992672 17.0055 0.000327822 16.9124 0.0392118C16.8194 0.0780957 16.7399 0.143861 16.684 0.228185C16.6281 0.31251 16.5984 0.411604 16.5986 0.512928C16.5986 0.580145 16.6118 0.646702 16.6374 0.708793C16.663 0.770883 16.7005 0.827288 16.7478 0.874781C16.7951 0.922273 16.8513 0.959921 16.9131 0.985571C16.9749 1.01122 17.0411 1.02437 17.1079 1.02427ZM10.4303 13.2162C10.2127 13.2161 9.99991 13.2808 9.81891 13.4022C9.6379 13.5237 9.49678 13.6964 9.4134 13.8985C9.33002 14.1005 9.30812 14.323 9.35047 14.5376C9.39283 14.7522 9.49754 14.9493 9.65135 15.1041C9.80516 15.2588 10.0012 15.3643 10.2146 15.407C10.428 15.4497 10.6492 15.4279 10.8503 15.3442C11.0513 15.2605 11.2232 15.1187 11.3441 14.9368C11.465 14.7549 11.5295 14.5411 11.5295 14.3223C11.5295 14.0289 11.4136 13.7476 11.2073 13.5402C11.001 13.3328 10.722 13.2162 10.4303 13.2162ZM20.5115 1.02427C20.6123 1.02442 20.7109 0.994502 20.7948 0.938288C20.8787 0.882075 20.9441 0.802098 20.9827 0.708485C21.0214 0.614873 21.0315 0.511834 21.0119 0.412416C20.9923 0.312998 20.9437 0.221672 20.8725 0.150001C20.8012 0.0783304 20.7103 0.0295379 20.6115 0.00980246C20.5126 -0.009933 20.4101 0.000276106 20.317 0.0391367C20.2239 0.0779972 20.1444 0.143762 20.0885 0.228103C20.0325 0.312445 20.0028 0.41157 20.0029 0.512928C20.0029 0.648543 20.0565 0.778605 20.1519 0.8745C20.2473 0.970394 20.3766 1.02427 20.5115 1.02427ZM23.784 8.64672C24.0256 8.64672 24.2618 8.57468 24.4627 8.43971C24.6636 8.30474 24.8202 8.1129 24.9127 7.88845C25.0051 7.664 25.0293 7.41703 24.9822 7.17876C24.935 6.94049 24.8187 6.72162 24.6478 6.54984C24.477 6.37805 24.2593 6.26106 24.0223 6.21367C23.7853 6.16627 23.5397 6.1906 23.3165 6.28357C23.0932 6.37654 22.9025 6.53397 22.7682 6.73597C22.634 6.93797 22.5623 7.17545 22.5623 7.41839C22.5625 7.74403 22.6913 8.05625 22.9204 8.28644C23.1495 8.51662 23.4601 8.64672 23.784 8.64672ZM27.1228 16.5471C26.8812 16.5471 26.645 16.6191 26.4441 16.7541C26.2432 16.8891 26.0866 17.0809 25.9941 17.3053C25.9017 17.5298 25.8775 17.7768 25.9246 18.015C25.9718 18.2533 26.0881 18.4722 26.259 18.644C26.4298 18.8157 26.6475 18.9327 26.8845 18.9801C27.1215 19.0275 27.3671 19.0032 27.5903 18.9102C27.8136 18.8173 28.0043 18.6598 28.1386 18.4578C28.2728 18.2558 28.3445 18.0183 28.3445 17.7754C28.3447 17.614 28.3132 17.4541 28.2519 17.305C28.1906 17.1558 28.1006 17.0203 27.9872 16.9061C27.8737 16.7919 27.7389 16.7014 27.5906 16.6396C27.4423 16.5779 27.2833 16.547 27.1228 16.5471ZM27.1228 23.9631C26.9822 23.9631 26.8448 24.005 26.7279 24.0835C26.6111 24.162 26.52 24.2736 26.4662 24.4042C26.4124 24.5348 26.3983 24.6785 26.4257 24.8171C26.4532 24.9557 26.5209 25.083 26.6203 25.183C26.7196 25.2829 26.8463 25.351 26.9842 25.3786C27.122 25.4061 27.2649 25.392 27.3948 25.3379C27.5247 25.2838 27.6357 25.1922 27.7138 25.0747C27.7918 24.9572 27.8335 24.819 27.8335 24.6777C27.8336 24.5838 27.8153 24.4908 27.7797 24.404C27.744 24.3172 27.6917 24.2383 27.6256 24.1719C27.5596 24.1054 27.4812 24.0527 27.395 24.0168C27.3087 23.9808 27.2162 23.9631 27.1228 23.9631ZM27.1228 13.0947C26.8812 13.0947 26.645 13.1668 26.4441 13.3017C26.2432 13.4367 26.0866 13.6286 25.9941 13.853C25.9017 14.0775 25.8775 14.3244 25.9246 14.5627C25.9718 14.801 26.0881 15.0198 26.259 15.1916C26.4298 15.3634 26.6475 15.4804 26.8845 15.5278C27.1215 15.5752 27.3671 15.5509 27.5903 15.4579C27.8136 15.3649 28.0043 15.2075 28.1386 15.0055C28.2728 14.8035 28.3445 14.566 28.3445 14.3231C28.3447 14.1617 28.3132 14.0018 28.2519 13.8526C28.1906 13.7035 28.1006 13.5679 27.9872 13.4538C27.8737 13.3396 27.7389 13.249 27.5906 13.1873C27.4423 13.1256 27.2833 13.0946 27.1228 13.0947ZM27.1228 20.2035C26.9213 20.2033 26.7243 20.2632 26.5566 20.3757C26.389 20.4882 26.2583 20.6481 26.1811 20.8352C26.1039 21.0224 26.0836 21.2283 26.1228 21.4271C26.162 21.6258 26.259 21.8084 26.4014 21.9517C26.5438 22.095 26.7253 22.1927 26.923 22.2323C27.1206 22.2718 27.3255 22.2516 27.5117 22.1741C27.6979 22.0966 27.857 21.9653 27.969 21.7969C28.0809 21.6284 28.1407 21.4303 28.1407 21.2277C28.1407 20.9561 28.0335 20.6957 27.8427 20.5035C27.6518 20.3113 27.3929 20.2039 27.1228 20.2035ZM30.4608 24.1679C30.3601 24.1679 30.2616 24.198 30.1779 24.2542C30.0941 24.3105 30.0288 24.3905 29.9903 24.4841C29.9517 24.5777 29.9416 24.6806 29.9613 24.78C29.9809 24.8793 30.0294 24.9706 30.1007 25.0422C30.1719 25.1138 30.2627 25.1626 30.3615 25.1824C30.4603 25.2021 30.5627 25.192 30.6558 25.1532C30.7488 25.1145 30.8284 25.0488 30.8843 24.9646C30.9403 24.8804 30.9702 24.7814 30.9702 24.6801C30.9704 24.6127 30.9574 24.546 30.9319 24.4837C30.9064 24.4214 30.8688 24.3648 30.8215 24.3172C30.7742 24.2695 30.718 24.2317 30.6561 24.206C30.5942 24.1802 30.5278 24.1678 30.4608 24.1679ZM27.1228 9.6424C26.8812 9.6424 26.645 9.71444 26.4441 9.84941C26.2432 9.98438 26.0866 10.1762 25.9941 10.4007C25.9017 10.6251 25.8775 10.8721 25.9246 11.1104C25.9718 11.3486 26.0881 11.5675 26.259 11.7393C26.4298 11.9111 26.6475 12.0281 26.8845 12.0755C27.1215 12.1228 27.3671 12.0985 27.5903 12.0056C27.8136 11.9126 28.0043 11.7551 28.1386 11.5531C28.2728 11.3512 28.3445 11.1137 28.3445 10.8707C28.3447 10.7093 28.3132 10.5495 28.2519 10.4003C28.1906 10.2511 28.1006 10.1156 27.9872 10.0014C27.8737 9.88726 27.7389 9.79671 27.5906 9.73497C27.4423 9.67323 27.2833 9.6423 27.1228 9.6424ZM23.784 13.0098C23.5257 13.0098 23.2731 13.0868 23.0583 13.2311C22.8435 13.3754 22.6761 13.5805 22.5773 13.8205C22.4784 14.0605 22.4525 14.3245 22.5029 14.5793C22.5533 14.834 22.6777 15.068 22.8604 15.2517C23.0431 15.4354 23.2758 15.5604 23.5292 15.6111C23.7825 15.6618 24.0452 15.6358 24.2838 15.5364C24.5225 15.437 24.7265 15.2687 24.87 15.0527C25.0135 14.8367 25.0901 14.5828 25.0901 14.3231C25.0902 14.1505 25.0565 13.9797 24.9909 13.8202C24.9253 13.6608 24.8291 13.516 24.7078 13.3939C24.5866 13.2719 24.4425 13.1751 24.284 13.109C24.1255 13.043 23.9556 13.0098 23.784 13.0098ZM23.784 9.55744C23.5257 9.55744 23.2731 9.63446 23.0583 9.77877C22.8435 9.92308 22.6761 10.1282 22.5773 10.3682C22.4784 10.6081 22.4525 10.8722 22.5029 11.1269C22.5533 11.3817 22.6777 11.6157 22.8604 11.7994C23.0431 11.983 23.2758 12.1081 23.5292 12.1588C23.7825 12.2095 24.0452 12.1834 24.2838 12.084C24.5225 11.9846 24.7265 11.8163 24.87 11.6003C25.0135 11.3844 25.0901 11.1305 25.0901 10.8707C25.0902 10.6982 25.0565 10.5273 24.9909 10.3679C24.9253 10.2085 24.8291 10.0636 24.7078 9.94158C24.5866 9.81955 24.4425 9.72274 24.284 9.65669C24.1255 9.59064 23.9556 9.55744 23.784 9.55744ZM27.1228 31.1695C27.0411 31.1693 26.9611 31.1936 26.8931 31.2391C26.825 31.2847 26.772 31.3495 26.7406 31.4255C26.7092 31.5014 26.701 31.5849 26.7169 31.6656C26.7328 31.7462 26.7722 31.8202 26.83 31.8784C26.8878 31.9365 26.9615 31.9761 27.0416 31.9921C27.1218 32.0081 27.2049 31.9998 27.2804 31.9682C27.3559 31.9367 27.4204 31.8834 27.4658 31.8149C27.5111 31.7465 27.5352 31.6661 27.535 31.5839C27.5351 31.5294 27.5245 31.4755 27.5039 31.4251C27.4832 31.3747 27.4529 31.3289 27.4146 31.2904C27.3763 31.2518 27.3308 31.2212 27.2807 31.2003C27.2307 31.1794 27.177 31.1695 27.1228 31.1695ZM27.1228 27.6203C27.022 27.6201 26.9235 27.65 26.8396 27.7062C26.7557 27.7624 26.6903 27.8423 26.6517 27.9359C26.613 28.0294 26.6028 28.1324 26.6224 28.2318C26.6419 28.3312 26.6904 28.4226 26.7616 28.4943C26.8328 28.566 26.9235 28.6148 27.0224 28.6346C27.1212 28.6545 27.2236 28.6444 27.3167 28.6056C27.4099 28.5669 27.4895 28.5012 27.5455 28.417C27.6015 28.3328 27.6314 28.2337 27.6314 28.1324C27.6315 28.0651 27.6184 27.9985 27.5929 27.9364C27.5674 27.8742 27.53 27.8177 27.4827 27.77C27.4355 27.7224 27.3794 27.6846 27.3177 27.6588C27.2559 27.6329 27.1897 27.6204 27.1228 27.6203ZM34.0421 17.06C33.9015 17.06 33.7641 17.1019 33.6472 17.1804C33.5304 17.259 33.4393 17.3706 33.3855 17.5011C33.3317 17.6317 33.3176 17.7754 33.345 17.914C33.3725 18.0526 33.4401 18.18 33.5395 18.2799C33.6389 18.3798 33.7656 18.4479 33.9034 18.4755C34.0413 18.5031 34.1842 18.4889 34.3141 18.4348C34.4439 18.3807 34.555 18.2891 34.6331 18.1716C34.7111 18.0541 34.7528 17.9159 34.7528 17.7746C34.7531 17.6806 34.735 17.5874 34.6994 17.5004C34.6638 17.4134 34.6115 17.3344 34.5455 17.2678C34.4795 17.2012 34.401 17.1483 34.3146 17.1122C34.2282 17.0762 34.1356 17.0576 34.0421 17.0576V17.06ZM37.1385 17.3617C37.0568 17.3616 36.9768 17.3858 36.9088 17.4313C36.8408 17.4769 36.7877 17.5417 36.7564 17.6175C36.725 17.6934 36.7167 17.7769 36.7325 17.8575C36.7484 17.9381 36.7876 18.0122 36.8454 18.0703C36.9031 18.1285 36.9767 18.1681 37.0568 18.1842C37.137 18.2003 37.2201 18.1921 37.2956 18.1607C37.3711 18.1293 37.4356 18.0761 37.481 18.0078C37.5265 17.9395 37.5507 17.8592 37.5507 17.777C37.551 17.7223 37.5406 17.6681 37.52 17.6175C37.4995 17.5669 37.4692 17.5209 37.4309 17.4821C37.3926 17.4433 37.347 17.4125 37.2968 17.3914C37.2467 17.3703 37.1928 17.3594 37.1385 17.3593V17.3617ZM34.0421 13.3004C33.8406 13.3002 33.6436 13.3602 33.4759 13.4726C33.3083 13.5851 33.1776 13.745 33.1004 13.9321C33.0232 14.1193 33.0029 14.3252 33.0421 14.524C33.0813 14.7227 33.1783 14.9053 33.3207 15.0486C33.4631 15.192 33.6446 15.2896 33.8423 15.3292C34.0399 15.3688 34.2448 15.3485 34.431 15.271C34.6172 15.1935 34.7763 15.0622 34.8883 14.8938C35.0002 14.7253 35.06 14.5273 35.06 14.3247C35.0603 14.19 35.0342 14.0566 34.9832 13.9321C34.9322 13.8076 34.8573 13.6945 34.7628 13.5991C34.6682 13.5038 34.5559 13.4281 34.4322 13.3764C34.3086 13.3248 34.176 13.2981 34.0421 13.298V13.3004ZM23.784 16.5487C23.5422 16.5485 23.3059 16.6205 23.1048 16.7555C22.9037 16.8904 22.747 17.0824 22.6545 17.3069C22.562 17.5315 22.5378 17.7786 22.5851 18.017C22.6323 18.2554 22.7489 18.4743 22.9199 18.6461C23.091 18.8179 23.3089 18.9348 23.546 18.9819C23.7832 19.0291 24.0289 19.0045 24.2522 18.9112C24.4754 18.8179 24.6661 18.6601 24.8001 18.4578C24.934 18.2554 25.0053 18.0177 25.0049 17.7746C25.0049 17.449 24.8762 17.1367 24.6473 16.9063C24.4184 16.676 24.1079 16.5465 23.784 16.5463V16.5487ZM37.1385 13.8125C37.0377 13.8124 36.9392 13.8423 36.8553 13.8984C36.7714 13.9546 36.706 14.0345 36.6673 14.1281C36.6287 14.2217 36.6185 14.3247 36.638 14.4241C36.6576 14.5235 36.7061 14.6148 36.7773 14.6865C36.8485 14.7582 36.9392 14.8071 37.038 14.8269C37.1369 14.8467 37.2393 14.8366 37.3324 14.7979C37.4256 14.7591 37.5051 14.6935 37.5611 14.6093C37.6171 14.525 37.6471 14.426 37.6471 14.3247C37.6474 14.2573 37.6344 14.1905 37.609 14.1281C37.5836 14.0658 37.5462 14.0091 37.499 13.9613C37.4517 13.9135 37.3956 13.8755 37.3337 13.8496C37.2718 13.8236 37.2055 13.8102 37.1385 13.8101V13.8125ZM30.4608 16.7503C30.2594 16.7503 30.0624 16.8104 29.8949 16.923C29.7273 17.0355 29.5968 17.1955 29.5197 17.3826C29.4426 17.5698 29.4224 17.7757 29.4617 17.9744C29.501 18.1731 29.598 18.3556 29.7405 18.4989C29.883 18.6421 30.0645 18.7397 30.2621 18.7792C30.4597 18.8187 30.6645 18.7984 30.8507 18.7209C31.0368 18.6434 31.1959 18.5121 31.3079 18.3437C31.4198 18.1752 31.4795 17.9772 31.4795 17.7746C31.4795 17.503 31.3722 17.2424 31.1812 17.0503C30.9901 16.8583 30.731 16.7503 30.4608 16.7503ZM30.4608 20.51C30.3203 20.51 30.1829 20.5519 30.066 20.6304C29.9491 20.7089 29.858 20.8205 29.8042 20.9511C29.7504 21.0817 29.7363 21.2253 29.7638 21.364C29.7912 21.5026 29.8589 21.6299 29.9583 21.7299C30.0577 21.8298 30.1843 21.8979 30.3222 21.9254C30.4601 21.953 30.603 21.9389 30.7328 21.8848C30.8627 21.8307 30.9737 21.7391 31.0518 21.6216C31.1299 21.5041 31.1716 21.3659 31.1716 21.2246C31.1716 21.035 31.0967 20.8533 30.9634 20.7193C30.8301 20.5852 30.6493 20.51 30.4608 20.51ZM34.0421 20.7148C33.9414 20.7148 33.8429 20.7448 33.7591 20.8011C33.6754 20.8574 33.6101 20.9374 33.5715 21.031C33.533 21.1245 33.5229 21.2275 33.5425 21.3269C33.5622 21.4262 33.6107 21.5174 33.6819 21.5891C33.7532 21.6607 33.8439 21.7095 33.9427 21.7292C34.0415 21.749 34.1439 21.7389 34.237 21.7001C34.3301 21.6613 34.4096 21.5957 34.4656 21.5115C34.5216 21.4272 34.5514 21.3282 34.5514 21.2269C34.5514 21.0911 34.4978 20.9608 34.4023 20.8648C34.3067 20.7688 34.1772 20.7148 34.0421 20.7148ZM10.4295 9.76785C10.2119 9.7677 9.99912 9.83243 9.81812 9.95387C9.63711 10.0753 9.49599 10.248 9.41261 10.4501C9.32923 10.6522 9.30733 10.8746 9.34968 11.0892C9.39204 11.3038 9.49675 11.501 9.65056 11.6557C9.80437 11.8105 10.0004 11.9159 10.2138 11.9586C10.4272 12.0014 10.6484 11.9795 10.8495 11.8958C11.0505 11.8121 11.2224 11.6704 11.3433 11.4885C11.4642 11.3066 11.5287 11.0927 11.5287 10.8739C11.5287 10.5807 11.4129 10.2995 11.2068 10.0921C11.0007 9.88469 10.7211 9.76806 10.4295 9.76785ZM30.4608 13.0979C30.2192 13.0979 29.983 13.17 29.7821 13.3049C29.5812 13.4399 29.4246 13.6317 29.3322 13.8562C29.2397 14.0806 29.2155 14.3276 29.2627 14.5659C29.3098 14.8041 29.4262 15.023 29.597 15.1948C29.7679 15.3666 29.9855 15.4836 30.2225 15.531C30.4595 15.5784 30.7051 15.554 30.9283 15.4611C31.1516 15.3681 31.3424 15.2107 31.4766 15.0087C31.6109 14.8067 31.6825 14.5692 31.6825 14.3262C31.683 14.1646 31.6518 14.0044 31.5906 13.855C31.5295 13.7055 31.4396 13.5696 31.3261 13.4551C31.2126 13.3406 31.0777 13.2498 30.9293 13.1878C30.7808 13.1258 30.6216 13.0939 30.4608 13.0939V13.0979ZM17.1079 20.51C16.9674 20.51 16.8299 20.5519 16.7131 20.6304C16.5962 20.7089 16.5051 20.8205 16.4513 20.9511C16.3975 21.0817 16.3834 21.2253 16.4108 21.364C16.4383 21.5026 16.506 21.6299 16.6054 21.7299C16.7048 21.8298 16.8314 21.8979 16.9693 21.9254C17.1071 21.953 17.25 21.9389 17.3799 21.8848C17.5098 21.8307 17.6208 21.7391 17.6989 21.6216C17.777 21.5041 17.8186 21.3659 17.8186 21.2246C17.8186 21.035 17.7438 20.8533 17.6105 20.7193C17.4772 20.5852 17.2964 20.51 17.1079 20.51ZM17.1079 16.7503C16.9064 16.7503 16.7095 16.8104 16.542 16.923C16.3744 17.0355 16.2439 17.1955 16.1668 17.3826C16.0897 17.5698 16.0695 17.7757 16.1088 17.9744C16.1481 18.1731 16.2451 18.3556 16.3876 18.4989C16.5301 18.6421 16.7116 18.7397 16.9092 18.7792C17.1068 18.8187 17.3116 18.7984 17.4978 18.7209C17.6839 18.6434 17.843 18.5121 17.9549 18.3437C18.0669 18.1752 18.1266 17.9772 18.1266 17.7746C18.1266 17.503 18.0193 17.2424 17.8282 17.0503C17.6372 16.8583 17.3781 16.7503 17.1079 16.7503ZM17.1079 13.009C16.8496 13.0091 16.5972 13.0863 16.3825 13.2307C16.1678 13.3751 16.0005 13.5803 15.9017 13.8202C15.803 14.0602 15.7773 14.3243 15.8278 14.579C15.8782 14.8337 16.0027 15.0676 16.1854 15.2512C16.3681 15.4348 16.6008 15.5598 16.8542 15.6104C17.1075 15.661 17.3701 15.6349 17.6087 15.5355C17.8473 15.4361 18.0513 15.2678 18.1948 15.0518C18.3383 14.8359 18.4149 14.582 18.4149 14.3223C18.415 14.1497 18.3812 13.9788 18.3156 13.8194C18.2499 13.66 18.1536 13.5151 18.0322 13.3931C17.9108 13.2711 17.7667 13.1744 17.6081 13.1085C17.4495 13.0426 17.2795 13.0088 17.1079 13.009ZM17.1079 24.1671C17.0071 24.167 16.9086 24.1969 16.8247 24.2531C16.7409 24.3092 16.6755 24.3892 16.6368 24.4827C16.5981 24.5763 16.5879 24.6793 16.6075 24.7787C16.627 24.8781 16.6755 24.9694 16.7467 25.0411C16.8179 25.1128 16.9086 25.1617 17.0075 25.1815C17.1063 25.2013 17.2088 25.1912 17.3019 25.1525C17.395 25.1138 17.4746 25.0481 17.5306 24.9639C17.5866 24.8796 17.6165 24.7806 17.6165 24.6793C17.6166 24.6121 17.6035 24.5455 17.578 24.4833C17.5525 24.4212 17.515 24.3648 17.4678 24.3172C17.4206 24.2696 17.3645 24.2319 17.3027 24.2061C17.241 24.1804 17.1748 24.1671 17.1079 24.1671ZM17.1079 9.55744C16.8496 9.5576 16.5972 9.63476 16.3825 9.77916C16.1678 9.92356 16.0005 10.1287 15.9017 10.3687C15.803 10.6087 15.7773 10.8727 15.8278 11.1274C15.8782 11.3821 16.0027 11.6161 16.1854 11.7996C16.3681 11.9832 16.6008 12.1082 16.8542 12.1588C17.1075 12.2094 17.3701 12.1834 17.6087 12.084C17.8473 11.9845 18.0513 11.8162 18.1948 11.6003C18.3383 11.3843 18.4149 11.1304 18.4149 10.8707C18.4151 10.6981 18.3814 10.5271 18.3158 10.3676C18.2502 10.2081 18.1539 10.0631 18.0325 9.94107C17.9111 9.819 17.767 9.72221 17.6083 9.65625C17.4496 9.59029 17.2796 9.55723 17.1079 9.55744ZM13.7699 20.7156C13.6691 20.7154 13.5706 20.7453 13.4867 20.8015C13.4028 20.8577 13.3374 20.9376 13.2987 21.0312C13.2601 21.1248 13.2499 21.2278 13.2694 21.3272C13.289 21.4266 13.3374 21.5179 13.4086 21.5896C13.4798 21.6613 13.5706 21.7101 13.6694 21.73C13.7683 21.7498 13.8707 21.7397 13.9638 21.701C14.057 21.6622 14.1365 21.5966 14.1925 21.5123C14.2486 21.4281 14.2784 21.3291 14.2784 21.2277C14.2785 21.1603 14.2654 21.0936 14.2398 21.0313C14.2142 20.969 14.1766 20.9125 14.1293 20.8648C14.0819 20.8172 14.0256 20.7794 13.9636 20.7536C13.9017 20.7279 13.8353 20.7147 13.7683 20.7148L13.7699 20.7156ZM13.7699 16.7511C13.5684 16.751 13.3713 16.8109 13.2037 16.9234C13.0361 17.0358 12.9054 17.1957 12.8282 17.3829C12.7509 17.57 12.7307 17.776 12.7699 17.9747C12.8091 18.1735 12.906 18.3561 13.0485 18.4994C13.1909 18.6427 13.3724 18.7403 13.5701 18.7799C13.7677 18.8195 13.9726 18.7993 14.1588 18.7218C14.3449 18.6443 14.5041 18.513 14.6161 18.3445C14.728 18.1761 14.7878 17.978 14.7878 17.7754C14.7879 17.6408 14.7616 17.5074 14.7104 17.383C14.6592 17.2586 14.5841 17.1455 14.4894 17.0503C14.3947 16.9551 14.2823 16.8796 14.1586 16.8282C14.0348 16.7767 13.9022 16.7502 13.7683 16.7503L13.7699 16.7511ZM13.7699 9.6424C13.5283 9.6424 13.2921 9.71444 13.0912 9.84941C12.8903 9.98438 12.7337 10.1762 12.6412 10.4007C12.5488 10.6251 12.5246 10.8721 12.5717 11.1104C12.6189 11.3486 12.7352 11.5675 12.906 11.7393C13.0769 11.9111 13.2946 12.0281 13.5315 12.0755C13.7685 12.1228 14.0142 12.0985 14.2374 12.0056C14.4606 11.9126 14.6514 11.7551 14.7856 11.5531C14.9199 11.3512 14.9915 11.1137 14.9915 10.8707C14.9917 10.7092 14.9602 10.5492 14.8988 10.3999C14.8374 10.2507 14.7473 10.115 14.6337 10.0009C14.52 9.88667 14.3851 9.79616 14.2366 9.73451C14.0881 9.67287 13.929 9.64129 13.7683 9.64161L13.7699 9.6424ZM13.7699 13.0947C13.5283 13.0947 13.2921 13.1668 13.0912 13.3017C12.8903 13.4367 12.7337 13.6286 12.6412 13.853C12.5488 14.0775 12.5246 14.3244 12.5717 14.5627C12.6189 14.801 12.7352 15.0198 12.906 15.1916C13.0769 15.3634 13.2946 15.4804 13.5315 15.5278C13.7685 15.5752 14.0142 15.5509 14.2374 15.4579C14.4606 15.3649 14.6514 15.2075 14.7856 15.0055C14.9199 14.8035 14.9915 14.566 14.9915 14.3231C14.9917 14.1615 14.9602 14.0015 14.8988 13.8523C14.8374 13.703 14.7473 13.5674 14.6337 13.4532C14.52 13.339 14.3851 13.2485 14.2366 13.1869C14.0881 13.1252 13.929 13.0936 13.7683 13.0939L13.7699 13.0947ZM23.7856 27.6203C23.6848 27.6201 23.5862 27.65 23.5024 27.7062C23.4185 27.7624 23.3531 27.8423 23.3144 27.9359C23.2757 28.0294 23.2655 28.1324 23.2851 28.2318C23.3047 28.3312 23.3531 28.4226 23.4243 28.4943C23.4955 28.566 23.5863 28.6148 23.6851 28.6346C23.7839 28.6545 23.8864 28.6444 23.9795 28.6056C24.0726 28.5669 24.1522 28.5012 24.2082 28.417C24.2642 28.3328 24.2941 28.2337 24.2941 28.1324C24.2942 28.065 24.2811 27.9983 24.2555 27.936C24.2299 27.8737 24.1923 27.8171 24.1449 27.7695C24.0975 27.7218 24.0413 27.684 23.9793 27.6583C23.9174 27.6326 23.851 27.6194 23.784 27.6195L23.7856 27.6203ZM20.5131 24.1679C20.4123 24.1679 20.3139 24.198 20.2301 24.2542C20.1463 24.3105 20.081 24.3905 20.0425 24.4841C20.0039 24.5777 19.9939 24.6806 20.0135 24.78C20.0332 24.8793 20.0817 24.9706 20.1529 25.0422C20.2241 25.1138 20.3149 25.1626 20.4137 25.1824C20.5125 25.2021 20.6149 25.192 20.708 25.1532C20.8011 25.1145 20.8806 25.0488 20.9366 24.9646C20.9925 24.8804 21.0224 24.7814 21.0224 24.6801C21.0226 24.6126 21.0096 24.5457 20.984 24.4833C20.9583 24.421 20.9207 24.3643 20.8732 24.3166C20.8257 24.2689 20.7693 24.2312 20.7072 24.2055C20.6451 24.1799 20.5786 24.1668 20.5115 24.1671L20.5131 24.1679ZM23.7856 23.9631C23.645 23.9631 23.5076 24.005 23.3907 24.0835C23.2738 24.162 23.1827 24.2736 23.1289 24.4042C23.0752 24.5348 23.0611 24.6785 23.0885 24.8171C23.1159 24.9557 23.1836 25.083 23.283 25.183C23.3824 25.2829 23.509 25.351 23.6469 25.3786C23.7848 25.4061 23.9277 25.392 24.0575 25.3379C24.1874 25.2838 24.2984 25.1922 24.3765 25.0747C24.4546 24.9572 24.4963 24.819 24.4963 24.6777C24.4964 24.5836 24.478 24.4905 24.4423 24.4036C24.4065 24.3167 24.354 24.2378 24.2878 24.1713C24.2217 24.1048 24.1431 24.0522 24.0566 24.0163C23.9702 23.9804 23.8775 23.9621 23.784 23.9623L23.7856 23.9631ZM20.5115 9.55665C20.2532 9.55665 20.0006 9.63367 19.7858 9.77798C19.571 9.92228 19.4036 10.1274 19.3048 10.3674C19.2059 10.6073 19.1801 10.8714 19.2305 11.1261C19.2808 11.3809 19.4052 11.6149 19.5879 11.7986C19.7706 11.9822 20.0033 12.1073 20.2567 12.158C20.5101 12.2087 20.7727 12.1827 21.0113 12.0833C21.25 11.9839 21.454 11.8155 21.5975 11.5996C21.741 11.3836 21.8176 11.1297 21.8176 10.8699C21.8176 10.5216 21.68 10.1876 21.4351 9.9413C21.1901 9.69501 20.8579 9.55665 20.5115 9.55665ZM23.784 20.2027C23.5825 20.2025 23.3854 20.2625 23.2178 20.3749C23.0502 20.4874 22.9195 20.6473 22.8423 20.8344C22.765 21.0216 22.7448 21.2275 22.784 21.4263C22.8232 21.625 22.9201 21.8076 23.0626 21.9509C23.205 22.0942 23.3865 22.1919 23.5842 22.2315C23.7818 22.2711 23.9867 22.2508 24.1729 22.1733C24.359 22.0958 24.5182 21.9645 24.6302 21.7961C24.7421 21.6276 24.8019 21.4296 24.8019 21.2269C24.8019 20.9554 24.6947 20.695 24.5038 20.503C24.3129 20.3109 24.054 20.2029 23.784 20.2027ZM20.5115 20.2027C20.31 20.2025 20.1129 20.2625 19.9453 20.3749C19.7777 20.4874 19.647 20.6473 19.5698 20.8344C19.4925 21.0216 19.4723 21.2275 19.5115 21.4263C19.5507 21.625 19.6477 21.8076 19.7901 21.9509C19.9325 22.0942 20.114 22.1919 20.3117 22.2315C20.5093 22.2711 20.7142 22.2508 20.9004 22.1733C21.0866 22.0958 21.2457 21.9645 21.3577 21.7961C21.4696 21.6276 21.5294 21.4296 21.5294 21.2269C21.5294 20.9554 21.4222 20.695 21.2313 20.503C21.0405 20.3109 20.7815 20.2029 20.5115 20.2027ZM20.5115 16.5463C20.2699 16.5463 20.0337 16.6183 19.8328 16.7533C19.6319 16.8883 19.4753 17.0801 19.3828 17.3045C19.2904 17.529 19.2662 17.776 19.3133 18.0142C19.3605 18.2525 19.4768 18.4714 19.6477 18.6432C19.8185 18.8149 20.0362 18.9319 20.2732 18.9793C20.5101 19.0267 20.7558 19.0024 20.979 18.9094C21.2022 18.8165 21.393 18.659 21.5273 18.457C21.6615 18.255 21.7332 18.0175 21.7332 17.7746C21.7332 17.4488 21.6045 17.1364 21.3753 16.906C21.1462 16.6757 20.8355 16.5463 20.5115 16.5463ZM20.5115 13.009C20.2532 13.009 20.0006 13.086 19.7858 13.2303C19.571 13.3746 19.4036 13.5797 19.3048 13.8197C19.2059 14.0597 19.1801 14.3237 19.2305 14.5785C19.2808 14.8332 19.4052 15.0672 19.5879 15.2509C19.7706 15.4346 20.0033 15.5596 20.2567 15.6103C20.5101 15.661 20.7727 15.635 21.0113 15.5356C21.25 15.4362 21.454 15.2679 21.5975 15.0519C21.741 14.8359 21.8176 14.582 21.8176 14.3223C21.8176 13.974 21.68 13.6399 21.4351 13.3936C21.1901 13.1473 20.8579 13.009 20.5115 13.009Z" fill="white"/>
</svg>
